<?xml version="1.0" encoding="UTF-8" standalone="no"?>
<!-- Created with Inkscape (http://www.inkscape.org/) -->

<svg
   width="100"
   height="100"
   viewBox="0 0 26.458333 26.458333"
   version="1.1"
   id="svg1"
   inkscape:export-filename="bitmap.svg"
   inkscape:export-xdpi="96"
   inkscape:export-ydpi="96"
   xmlns:inkscape="http://www.inkscape.org/namespaces/inkscape"
   xmlns:sodipodi="http://sodipodi.sourceforge.net/DTD/sodipodi-0.dtd"
   xmlns="http://www.w3.org/2000/svg"
   xmlns:svg="http://www.w3.org/2000/svg">
  <sodipodi:namedview
     id="namedview1"
     pagecolor="#ffffff"
     bordercolor="#000000"
     borderopacity="0.25"
     inkscape:showpageshadow="2"
     inkscape:pageopacity="0.0"
     inkscape:pagecheckerboard="0"
     inkscape:deskcolor="#d1d1d1"
     inkscape:document-units="mm" />
  <defs
     id="defs1" />
  <g
     inkscape:label="Layer 1"
     inkscape:groupmode="layer"
     id="layer1">
    <path
       sodipodi:type="star"
       style="fill:#0030fc;fill-opacity:1;stroke-width:0.264583"
       id="path1"
       inkscape:flatsided="false"
       sodipodi:sides="20"
       sodipodi:cx="5.327086"
       sodipodi:cy="7.2327108"
       sodipodi:r1="5.9498601"
       sodipodi:r2="6.9998355"
       sodipodi:arg1="1.3903894"
       sodipodi:arg2="1.547469"
       inkscape:rounded="1.34"
       inkscape:randomized="-0.201"
       d="m 7.4050497,13.523133 c -1.9226149,-0.09764 -1.0696101,-0.04417 -2.8956533,0.525868 -1.8260436,0.570037 2.1069138,-1.76152 0.080006,-2.321498 -2.0269068,-0.559978 -0.1841813,1.52585 -2.1713745,0.917811 -1.9871937,-0.608039 1.8456308,2.332646 0.3279642,0.98235 -1.5176663,-1.350296 0.027298,1.662193 -1.3531947,0.01437 C 0.01230494,11.994219 1.763908,12.235348 -0.02594951,11.301385 -1.8158067,10.367423 1.2896977,12.059384 0.34487878,10.172714 -0.59994029,8.2860448 0.36002737,10.859845 -0.72665909,9.0727926 -1.8133453,7.2857406 1.2393527,12.350028 0.05390932,10.770765 -1.1315343,9.191501 -0.25663174,10.761979 -1.1477878,8.901042 -2.0389436,7.0401058 -2.6217042,9.1679435 -2.2502671,7.0657505 -1.8788298,4.963557 -0.56737952,6.919268 -0.79678212,5.1476071 -1.0261847,3.3759465 -3.4003259,7.797666 -2.7644254,5.8888175 c 0.6359005,-1.908849 1.4697477,-0.3390226 1.7467951,-2.2324942 0.27704745,-1.8934712 0.0355303,0.032827 0.80940467,-1.554684 C 0.56564892,0.51412767 -0.71804859,4.478576 0.32440274,2.7661056 1.3668539,1.0536355 -1.4849909,3.5762048 0.38832035,2.7490028 2.261632,1.9218006 0.25920782,2.4734049 1.6863614,1.0682687 3.1135148,-0.33686723 0.35243484,1.7022167 2.0625907,0.83978501 3.7727468,-0.02264689 3.2284292,0.68708907 5.2443989,0.29342197 7.2603682,-0.10024505 2.1178931,0.76497118 4.0564024,0.81876328 5.9949121,0.87255539 4.8354586,0.08371655 6.7932258,0.56941813 8.7509926,1.0551196 5.7523429,0.25412121 7.4174863,1.1712416 9.0826301,2.0883621 5.339962,2.4809288 7.0866713,3.0713065 8.8333802,3.6616841 8.3675918,0.60950691 9.98698,1.5372986 c 1.619389,0.927792 -3.0485672,1.220456 -1.3951865,2.3406525 1.6533805,1.1201963 1.1975186,-1.86341 2.3144635,-0.4726926 1.116945,1.3907176 -1.6397772,-0.4472901 -0.346979,1.0954134 1.292797,1.5427031 1.113418,-0.2354638 2.03341,1.4275341 0.919993,1.6629983 -1.955393,-0.4537849 -1.612282,1.5581504 0.343111,2.0119349 2.310675,-1.3114835 2.372196,0.7840827 0.06152,2.0955669 -1.963847,-1.1019656 -2.72026,0.7100815 C 9.8759294,10.792567 13.352262,6.2929122 12.597089,7.9962194 11.841916,9.6995269 10.522658,7.6802946 9.3032253,9.2459862 8.0837926,10.811677 11.956777,8.4517188 11.31056,10.420616 c -0.646217,1.968898 -0.190029,-0.230524 -1.8022536,1.009888 -1.6122245,1.240411 1.7300516,1.20269 -0.064008,2.207892 -1.7940597,1.005202 0.151141,-2.007325 -1.2979958,-0.821628 -1.4491365,1.185697 1.4215739,0.09141 -0.3733331,0.471575 -1.7949073,0.380165 1.5546957,0.33243 -0.3679196,0.23479 z"
       inkscape:transform-center-x="-0.56319176"
       inkscape:transform-center-y="0.46924617"
       transform="matrix(1.4510798,0,0,1.6267657,4.1973693,0.01016475)" />
    <path
       sodipodi:type="star"
       style="fill:#fc0000;fill-opacity:1;stroke-width:0.264583"
       id="path1-3"
       inkscape:flatsided="false"
       sodipodi:sides="18"
       sodipodi:cx="5.327086"
       sodipodi:cy="7.2327108"
       sodipodi:r1="6.9998355"
       sodipodi:r2="6.9998355"
       sodipodi:arg1="1.3903894"
       sodipodi:arg2="1.5649223"
       inkscape:rounded="3.61"
       inkscape:randomized="0.514"
       d="M 9.0537508,12.728239 C 4.878249,11.055991 9.6756759,15.537941 5.9373536,14.075446 2.1990303,12.61295 9.3631679,14.670985 5.9955352,15.985984 2.6279034,17.300982 3.7939331,13.006784 0.40997711,10.666473 -2.9739798,8.3261623 3.054851,12.999869 -0.45195551,9.895295 -3.958761,6.790722 2.9555187,16.570847 0.562656,13.458151 -1.8302074,10.345454 3.9758256,9.9258805 -0.20135902,8.8051123 -4.3785424,7.6843444 -0.75798466,11.373808 -4.1533091,8.0826282 -7.5486346,4.791447 -0.02665006,14.224378 1.9907482,9.686278 4.0081459,5.1481795 0.01410178,12.06725 -2.7812094,8.989672 -5.5765214,5.9120929 -3.4789622,12.394629 -1.355268,8.5621904 0.76842557,4.7297532 -0.75631339,8.5724147 1.4158734,4.0907545 3.5880609,-0.39090702 -0.59218785,9.1380341 1.1083155,4.5718402 2.8088184,0.00564766 -5.811845,6.3183702 -4.0715769,2.2700915 -2.3313083,-1.7781883 -3.9595176,3.1401072 -0.84471421,0.77686883 2.2700883,-1.5863689 -4.0420689,4.8545316 -1.1358082,2.6546718 1.7704533,0.45481124 -0.72858124,5.7096947 1.1520658,2.9983684 3.0327122,0.28704284 3.2489622,6.7743114 6.4843811,2.7700134 9.7198008,-1.2342857 -0.31692163,1.175301 3.7011931,3.2213512 7.7193067,5.2674008 -0.16873236,-4.3170472 2.8612887,-1.4356571 5.8913107,1.4457338 2.013454,-0.57895456 6.7521185,0.13872822 11.490782,0.85641079 6.7064964,-0.90445651 8.3813749,2.1484374 10.056254,5.2013322 5.1366134,1.0955912 9.2431918,2.1228586 13.349769,3.1501257 4.0018361,-0.92553198 7.4602576,0.53156544 10.91868,1.9886633 8.877332,3.907018 12.948781,5.7260854 17.020229,7.5451522 8.4397587,2.4085889 9.7050161,7.2453265 10.970274,12.082066 10.156435,1.618788 13.944769,3.7272099 17.733101,5.8356313 10.143416,0.10173937 12.29674,3.8706451 14.450064,7.639552 7.8321081,3.0269368 10.47547,7.5509924 c 2.643361,4.5240546 3.407849,-6.3612855 0.863716,-2.0912308 -2.5441337,4.2700559 -0.503768,2.6503118 0.300152,6.0931104 0.80392,3.442797 1.125907,-2.7901314 -2.0160541,1.504991 -3.1419623,4.295124 2.9465771,-6.1535883 0.7294391,-2.392807 -2.2171375,3.76078 1.869625,-0.05857 -0.8134849,3.369684 -2.6831107,3.428258 1.4099119,1.645765 -1.9000675,2.180876 -3.3099783,0.535111 2.3966944,-3.880903 -1.3686078,-3.03604 -3.7653033,0.844864 6.9586912,1.22091 2.783188,-0.451337 z"
       inkscape:transform-center-x="0.078880544"
       inkscape:transform-center-y="-1.3059318"
       transform="matrix(0.61654548,-0.85085551,0.9710266,0.65701516,4.9392118,17.015831)" />
    <rect
       style="fill:#ffff00;fill-opacity:1;stroke-width:0.264583"
       id="rect110"
       width="25.942476"
       height="3.5080812"
       x="0.17323858"
       y="12.646416" />
  </g>
</svg>